<svg id="visual" viewBox="0 0 900 450" width="900" height="450" xmlns="http://www.w3.org/2000/svg" xmlns:xlink="http://www.w3.org/1999/xlink" version="1.1"><rect x="0" y="0" width="900" height="450" fill="#a31947"></rect><path d="M0 158L16.7 158.3C33.3 158.7 66.7 159.3 100 154.7C133.3 150 166.7 140 200 137.5C233.3 135 266.7 140 300 146.2C333.3 152.3 366.7 159.7 400 156.3C433.3 153 466.7 139 500 132.5C533.3 126 566.7 127 600 135.7C633.3 144.3 666.7 160.7 700 168.8C733.3 177 766.7 177 800 176.7C833.3 176.3 866.7 175.7 883.3 175.3L900 175L900 451L883.3 451C866.7 451 833.3 451 800 451C766.7 451 733.3 451 700 451C666.7 451 633.3 451 600 451C566.7 451 533.3 451 500 451C466.7 451 433.3 451 400 451C366.7 451 333.3 451 300 451C266.7 451 233.3 451 200 451C166.7 451 133.3 451 100 451C66.7 451 33.3 451 16.7 451L0 451Z" fill="#a31947"></path><path d="M0 181L16.7 181.5C33.3 182 66.7 183 100 184.8C133.3 186.7 166.7 189.3 200 188.5C233.3 187.7 266.7 183.3 300 179.7C333.3 176 366.7 173 400 169.8C433.3 166.7 466.7 163.3 500 166C533.3 168.7 566.7 177.3 600 181.2C633.3 185 666.7 184 700 181C733.3 178 766.7 173 800 168.3C833.3 163.7 866.7 159.3 883.3 157.2L900 155L900 451L883.3 451C866.7 451 833.3 451 800 451C766.7 451 733.3 451 700 451C666.7 451 633.3 451 600 451C566.7 451 533.3 451 500 451C466.7 451 433.3 451 400 451C366.7 451 333.3 451 300 451C266.7 451 233.3 451 200 451C166.7 451 133.3 451 100 451C66.7 451 33.3 451 16.7 451L0 451Z" fill="#a1124e"></path><path d="M0 182L16.7 188.5C33.3 195 66.7 208 100 206.5C133.3 205 166.7 189 200 183.2C233.3 177.3 266.7 181.7 300 182.3C333.3 183 366.7 180 400 183.8C433.3 187.7 466.7 198.3 500 202.5C533.3 206.7 566.7 204.3 600 203.5C633.3 202.7 666.7 203.3 700 206.5C733.3 209.7 766.7 215.3 800 211.2C833.3 207 866.7 193 883.3 186L900 179L900 451L883.3 451C866.7 451 833.3 451 800 451C766.7 451 733.3 451 700 451C666.7 451 633.3 451 600 451C566.7 451 533.3 451 500 451C466.7 451 433.3 451 400 451C366.7 451 333.3 451 300 451C266.7 451 233.3 451 200 451C166.7 451 133.3 451 100 451C66.7 451 33.3 451 16.7 451L0 451Z" fill="#9e0b55"></path><path d="M0 213L16.7 217C33.3 221 66.7 229 100 227.3C133.3 225.7 166.7 214.3 200 210.3C233.3 206.3 266.7 209.7 300 214.7C333.3 219.7 366.7 226.3 400 231.3C433.3 236.3 466.7 239.7 500 240.7C533.3 241.7 566.7 240.3 600 236.7C633.3 233 666.7 227 700 225C733.3 223 766.7 225 800 222.5C833.3 220 866.7 213 883.3 209.5L900 206L900 451L883.3 451C866.7 451 833.3 451 800 451C766.7 451 733.3 451 700 451C666.7 451 633.3 451 600 451C566.7 451 533.3 451 500 451C466.7 451 433.3 451 400 451C366.7 451 333.3 451 300 451C266.7 451 233.3 451 200 451C166.7 451 133.3 451 100 451C66.7 451 33.3 451 16.7 451L0 451Z" fill="#9b065c"></path><path d="M0 225L16.7 231.5C33.3 238 66.7 251 100 252C133.3 253 166.7 242 200 241.3C233.3 240.7 266.7 250.3 300 251.3C333.3 252.3 366.7 244.7 400 242C433.3 239.3 466.7 241.7 500 242C533.3 242.3 566.7 240.7 600 238C633.3 235.3 666.7 231.7 700 230.5C733.3 229.3 766.7 230.7 800 233.5C833.3 236.3 866.7 240.7 883.3 242.8L900 245L900 451L883.3 451C866.7 451 833.3 451 800 451C766.7 451 733.3 451 700 451C666.7 451 633.3 451 600 451C566.7 451 533.3 451 500 451C466.7 451 433.3 451 400 451C366.7 451 333.3 451 300 451C266.7 451 233.3 451 200 451C166.7 451 133.3 451 100 451C66.7 451 33.3 451 16.7 451L0 451Z" fill="#960664"></path><path d="M0 255L16.7 256.7C33.3 258.3 66.7 261.7 100 262.5C133.3 263.3 166.7 261.7 200 261.3C233.3 261 266.7 262 300 264.5C333.3 267 366.7 271 400 273C433.3 275 466.7 275 500 273.5C533.3 272 566.7 269 600 268.7C633.3 268.3 666.7 270.7 700 271.7C733.3 272.7 766.7 272.3 800 272.7C833.3 273 866.7 274 883.3 274.5L900 275L900 451L883.3 451C866.7 451 833.3 451 800 451C766.7 451 733.3 451 700 451C666.7 451 633.3 451 600 451C566.7 451 533.3 451 500 451C466.7 451 433.3 451 400 451C366.7 451 333.3 451 300 451C266.7 451 233.3 451 200 451C166.7 451 133.3 451 100 451C66.7 451 33.3 451 16.7 451L0 451Z" fill="#90086b"></path><path d="M0 297L16.7 296.7C33.3 296.3 66.7 295.7 100 297.7C133.3 299.7 166.7 304.3 200 306.2C233.3 308 266.7 307 300 303.8C333.3 300.7 366.7 295.3 400 295.2C433.3 295 466.7 300 500 299.2C533.3 298.3 566.7 291.7 600 289.2C633.3 286.7 666.7 288.3 700 291C733.3 293.7 766.7 297.3 800 298.2C833.3 299 866.7 297 883.3 296L900 295L900 451L883.3 451C866.7 451 833.3 451 800 451C766.7 451 733.3 451 700 451C666.7 451 633.3 451 600 451C566.7 451 533.3 451 500 451C466.7 451 433.3 451 400 451C366.7 451 333.3 451 300 451C266.7 451 233.3 451 200 451C166.7 451 133.3 451 100 451C66.7 451 33.3 451 16.7 451L0 451Z" fill="#890e73"></path><path d="M0 321L16.7 320.8C33.3 320.7 66.7 320.3 100 319.8C133.3 319.3 166.7 318.7 200 318.3C233.3 318 266.7 318 300 318.2C333.3 318.3 366.7 318.7 400 319.7C433.3 320.7 466.7 322.3 500 319.8C533.3 317.3 566.7 310.7 600 309.3C633.3 308 666.7 312 700 315.5C733.3 319 766.7 322 800 324C833.3 326 866.7 327 883.3 327.5L900 328L900 451L883.3 451C866.7 451 833.3 451 800 451C766.7 451 733.3 451 700 451C666.7 451 633.3 451 600 451C566.7 451 533.3 451 500 451C466.7 451 433.3 451 400 451C366.7 451 333.3 451 300 451C266.7 451 233.3 451 200 451C166.7 451 133.3 451 100 451C66.7 451 33.3 451 16.7 451L0 451Z" fill="#81147a"></path><path d="M0 337L16.7 339C33.3 341 66.7 345 100 345.8C133.3 346.7 166.7 344.3 200 344.5C233.3 344.7 266.7 347.3 300 345.2C333.3 343 366.7 336 400 334.8C433.3 333.7 466.7 338.3 500 339.5C533.3 340.7 566.7 338.3 600 338.2C633.3 338 666.7 340 700 340.8C733.3 341.7 766.7 341.3 800 343.2C833.3 345 866.7 349 883.3 351L900 353L900 451L883.3 451C866.7 451 833.3 451 800 451C766.7 451 733.3 451 700 451C666.7 451 633.3 451 600 451C566.7 451 533.3 451 500 451C466.7 451 433.3 451 400 451C366.7 451 333.3 451 300 451C266.7 451 233.3 451 200 451C166.7 451 133.3 451 100 451C66.7 451 33.3 451 16.7 451L0 451Z" fill="#781a81"></path><path d="M0 361L16.7 360.5C33.3 360 66.7 359 100 361.3C133.3 363.7 166.7 369.3 200 372.3C233.3 375.3 266.7 375.7 300 373.5C333.3 371.3 366.7 366.7 400 363.7C433.3 360.7 466.7 359.3 500 359.8C533.3 360.3 566.7 362.7 600 363.7C633.3 364.7 666.7 364.3 700 365.3C733.3 366.3 766.7 368.7 800 367.7C833.3 366.7 866.7 362.3 883.3 360.2L900 358L900 451L883.3 451C866.7 451 833.3 451 800 451C766.7 451 733.3 451 700 451C666.7 451 633.3 451 600 451C566.7 451 533.3 451 500 451C466.7 451 433.3 451 400 451C366.7 451 333.3 451 300 451C266.7 451 233.3 451 200 451C166.7 451 133.3 451 100 451C66.7 451 33.3 451 16.7 451L0 451Z" fill="#6c2088"></path><path d="M0 386L16.7 387C33.3 388 66.7 390 100 390.8C133.3 391.7 166.7 391.3 200 391.7C233.3 392 266.7 393 300 391.5C333.3 390 366.7 386 400 384.2C433.3 382.3 466.7 382.7 500 383.7C533.3 384.7 566.7 386.3 600 386.3C633.3 386.3 666.7 384.7 700 386.5C733.3 388.3 766.7 393.7 800 394.3C833.3 395 866.7 391 883.3 389L900 387L900 451L883.3 451C866.7 451 833.3 451 800 451C766.7 451 733.3 451 700 451C666.7 451 633.3 451 600 451C566.7 451 533.3 451 500 451C466.7 451 433.3 451 400 451C366.7 451 333.3 451 300 451C266.7 451 233.3 451 200 451C166.7 451 133.3 451 100 451C66.7 451 33.3 451 16.7 451L0 451Z" fill="#5f268e"></path><path d="M0 413L16.7 414C33.3 415 66.7 417 100 416.5C133.3 416 166.7 413 200 412.2C233.3 411.3 266.7 412.7 300 412.5C333.3 412.3 366.7 410.7 400 410C433.3 409.3 466.7 409.7 500 411.2C533.3 412.7 566.7 415.3 600 415.8C633.3 416.3 666.7 414.7 700 414.8C733.3 415 766.7 417 800 416.5C833.3 416 866.7 413 883.3 411.5L900 410L900 451L883.3 451C866.7 451 833.3 451 800 451C766.7 451 733.3 451 700 451C666.7 451 633.3 451 600 451C566.7 451 533.3 451 500 451C466.7 451 433.3 451 400 451C366.7 451 333.3 451 300 451C266.7 451 233.3 451 200 451C166.7 451 133.3 451 100 451C66.7 451 33.3 451 16.7 451L0 451Z" fill="#4e2b94"></path></svg>